<?xml version="1.0" encoding="UTF-8"?>
<svg width="128px" height="128px" viewBox="0 0 128 128" version="1.1" xmlns="http://www.w3.org/2000/svg" xmlns:xlink="http://www.w3.org/1999/xlink">
    <title>logo</title>
    <g id="logo" stroke="none" stroke-width="1" fill="none" fill-rule="evenodd">
        <path d="M96,16 C104.836556,16 112,23.163444 112,32 L112,96 C112,104.836556 104.836556,112 96,112 L32,112 C23.163444,112 16,104.836556 16,96 L16,32 C16,23.163444 23.163444,16 32,16 L96,16 Z M97.6363636,27 L30.3636364,27 C28.5059513,27 27,28.5059513 27,30.3636364 L27,97.6363636 C27,99.4940487 28.5059513,101 30.3636364,101 L97.6363636,101 C99.4940487,101 101,99.4940487 101,97.6363636 L101,30.3636364 C101,28.5059513 99.4940487,27 97.6363636,27 Z" id="Logo" fill="#000000" fill-rule="nonzero" transform="translate(64, 64) rotate(45) translate(-64, -64)"></path>
    </g>
</svg>